# xmcd CD database file
# 
# Track frame offsets:
# 	150
# 	16290
# 	29127
# 	41480
# 	54345
# 	73072
# 	98965
# 	120307
# 	142892
# 	156892
# 	168445
# 	185842
# 	198585
# 	216360
# 
# Disc length: 3010 seconds
# 
# Submitted via: Nero 6, 3, 0, 2
# 
# Revision: 0
# Processed by: cddbd v1.5.1PL0 Copyright (c) Steve Scherf et al.
#
DISCID=cb0bc00e
DTITLE=Ash Grunwald - I Don't Believe
DYEAR=2004
DGENRE=Blues
TTITLE0=Everyday
TTITLE1=Hey Baby
TTITLE2=Whispering voice
TTITLE3=1976 Coaster
TTITLE4=Keep it real
TTITLE5=Going out west
TTITLE6=How many more years
TTITLE7=Cross Roads
TTITLE8=I don't believe
TTITLE9=Empire State
TTITLE10=Dangerous Ground
TTITLE11=Jesus gonna be here
TTITLE12=Walking Blues
TTITLE13=Everyday Reprise
EXTD=
EXTT0=
EXTT1=
EXTT2=
EXTT3=
EXTT4=
EXTT5=
EXTT6=
EXTT7=
EXTT8=
EXTT9=
EXTT10=
EXTT11=
EXTT12=
EXTT13=
PLAYORDER=
